<?xml version="1.0" encoding="utf-8"?>
<!-- Generator: Adobe Illustrator 16.0.0, SVG Export Plug-In . SVG Version: 6.00 Build 0)  -->
<!DOCTYPE svg PUBLIC "-//W3C//DTD SVG 1.1//EN" "http://www.w3.org/Graphics/SVG/1.1/DTD/svg11.dtd">
<svg version="1.1" xmlns="http://www.w3.org/2000/svg" xmlns:xlink="http://www.w3.org/1999/xlink" x="0px" y="0px"
	 width="141.73px" height="141.73px" viewBox="0 0 141.73 141.73" enable-background="new 0 0 141.73 141.73" xml:space="preserve">
<g id="bg" display="none">
	<rect x="-0.001" y="-0.001" display="inline" fill="#D9EDF6" width="141.732" height="141.732"/>
</g>
<g id="icons">
	<path fill="#FDDB69" d="M45.751,70.842c0-0.567,0.189-1.064,0.591-1.466c0.402-0.378,0.898-0.568,1.418-0.568h4.824
		c0.544,0,0.993,0.189,1.372,0.592c0.355,0.402,0.544,0.875,0.544,1.442s-0.166,1.04-0.52,1.442
		c-0.355,0.402-0.828,0.591-1.372,0.591h-4.824c-0.544,0-1.017-0.188-1.419-0.591C45.964,71.882,45.751,71.409,45.751,70.842z
		 M52.515,87.229c0-0.544,0.189-1.017,0.544-1.442l3.476-3.382c0.354-0.378,0.828-0.544,1.396-0.544
		c0.567,0,1.041,0.189,1.419,0.544c0.378,0.355,0.567,0.805,0.567,1.349c0,0.567-0.189,1.087-0.567,1.513l-3.358,3.358
		c-0.969,0.757-1.939,0.757-2.909,0C52.704,88.246,52.515,87.773,52.515,87.229z M52.515,54.501c0-0.544,0.189-1.017,0.544-1.442
		c0.473-0.402,0.969-0.591,1.514-0.591c0.52,0,0.993,0.189,1.395,0.568l3.382,3.476c0.378,0.354,0.567,0.828,0.567,1.395
		s-0.189,1.041-0.567,1.419c-0.378,0.378-0.852,0.567-1.419,0.567c-0.568,0-1.041-0.189-1.396-0.567l-3.453-3.382
		C52.704,55.565,52.515,55.068,52.515,54.501z M58.545,70.842c0-2.199,0.544-4.257,1.655-6.148c1.111-1.892,2.601-3.406,4.517-4.517
		c1.916-1.112,3.949-1.656,6.149-1.656c1.656,0,3.24,0.331,4.777,0.993c1.514,0.663,2.838,1.538,3.926,2.648
		c1.111,1.112,1.986,2.413,2.625,3.926c0.637,1.514,0.969,3.122,0.969,4.777c0,2.223-0.543,4.28-1.654,6.172
		c-1.111,1.893-2.602,3.382-4.494,4.493c-1.891,1.111-3.949,1.656-6.172,1.656c-2.222,0-4.28-0.545-6.171-1.656
		c-1.892-1.111-3.382-2.601-4.494-4.493C59.112,75.122,58.545,73.064,58.545,70.842z M62.565,70.842c0,2.317,0.804,4.28,2.436,5.912
		c1.608,1.632,3.571,2.459,5.889,2.459s4.281-0.827,5.912-2.459s2.459-3.595,2.459-5.912c0-2.271-0.828-4.209-2.459-5.841
		c-1.631-1.608-3.594-2.412-5.912-2.412c-2.294,0-4.257,0.804-5.865,2.412C63.369,66.633,62.565,68.571,62.565,70.842z
		 M68.855,89.239c0-0.567,0.189-1.04,0.591-1.419c0.402-0.378,0.875-0.567,1.419-0.567c0.566,0,1.063,0.189,1.441,0.567
		c0.379,0.379,0.568,0.852,0.568,1.419v4.706c0,0.567-0.189,1.064-0.592,1.467c-0.401,0.401-0.875,0.591-1.417,0.591
		c-0.544,0-1.041-0.189-1.419-0.591c-0.402-0.402-0.591-0.899-0.591-1.467V89.239z M68.855,52.585v-4.824
		c0-0.544,0.189-1.018,0.591-1.419c0.402-0.402,0.875-0.615,1.443-0.615c0.567,0,1.017,0.189,1.417,0.592
		c0.402,0.401,0.592,0.875,0.592,1.418v4.848c0,0.544-0.189,0.993-0.592,1.372c-0.401,0.378-0.875,0.544-1.417,0.544
		c-0.544,0-1.041-0.189-1.419-0.544C69.092,53.603,68.855,53.129,68.855,52.585z M81.908,83.754c0-0.544,0.189-0.993,0.545-1.325
		c0.354-0.378,0.803-0.543,1.324-0.543c0.566,0,1.041,0.188,1.418,0.543l3.453,3.382c0.379,0.402,0.568,0.899,0.568,1.442
		c0,0.544-0.189,1.018-0.568,1.396c-0.945,0.733-1.893,0.733-2.838,0l-3.357-3.358C82.098,84.864,81.908,84.368,81.908,83.754z
		 M81.908,57.93c0-0.591,0.189-1.064,0.545-1.396l3.357-3.476c0.402-0.378,0.875-0.567,1.395-0.567c0.568,0,1.041,0.189,1.42,0.591
		c0.402,0.402,0.592,0.875,0.592,1.419c0,0.591-0.189,1.088-0.568,1.466l-3.453,3.382c-0.424,0.378-0.898,0.567-1.418,0.567
		c-0.545,0-0.971-0.189-1.324-0.567C82.098,58.97,81.908,58.498,81.908,57.93z M87.254,70.842c0-0.567,0.189-1.041,0.566-1.466
		c0.379-0.378,0.828-0.568,1.35-0.568h4.775c0.545,0,1.018,0.213,1.42,0.615s0.613,0.875,0.613,1.419s-0.211,1.017-0.613,1.419
		s-0.875,0.591-1.42,0.591H89.17c-0.545,0-1.018-0.188-1.373-0.591C87.443,71.858,87.254,71.409,87.254,70.842z"/>
	<path fill="#B7C1C8" d="M2.654,127.937c0-2.341,0.733-4.446,2.199-6.267c1.466-1.821,3.334-3.004,5.628-3.523
		c0.615-2.767,2.01-5.061,4.209-6.811c2.199-1.773,4.729-2.648,7.615-2.648c2.791,0,5.297,0.852,7.473,2.577
		c2.199,1.727,3.619,3.926,4.257,6.622h0.639c2.79,0,5.155,0.969,7.118,2.932c1.962,1.963,2.956,4.328,2.956,7.095
		c0,2.79-0.993,5.155-2.956,7.118c-1.963,1.963-4.328,2.955-7.118,2.955H12.752c-1.372,0-2.672-0.26-3.902-0.804
		s-2.341-1.206-3.24-2.104s-1.608-1.986-2.152-3.216C2.915,130.633,2.654,129.285,2.654,127.937z M6.083,127.937
		c0,1.798,0.662,3.358,1.938,4.635c1.277,1.277,2.862,1.939,4.707,1.939h21.945c1.82,0,3.405-0.639,4.705-1.939
		c1.301-1.301,1.963-2.837,1.963-4.635s-0.639-3.358-1.963-4.635c-1.3-1.277-2.861-1.939-4.705-1.939h-3.288
		c-0.236,0-0.354-0.118-0.354-0.354l-0.166-1.159c-0.237-2.223-1.183-4.091-2.814-5.557c-1.632-1.467-3.571-2.199-5.794-2.199
		c-2.223,0-4.162,0.732-5.817,2.223c-1.656,1.466-2.578,3.334-2.791,5.533l-0.165,0.993c0,0.237-0.119,0.355-0.378,0.355
		l-1.065,0.165c-1.702,0.142-3.121,0.852-4.28,2.104C6.674,124.721,6.083,126.211,6.083,127.937z M27.012,107.315
		c-0.236,0.213-0.189,0.379,0.166,0.497c1.017,0.449,1.868,0.875,2.554,1.301c0.26,0.07,0.449,0.047,0.521-0.071
		c1.442-1.348,3.098-2.034,5.013-2.034s3.547,0.639,4.966,1.916c1.395,1.276,2.176,2.861,2.341,4.729l0.213,1.514h3.358
		c1.537,0,2.861,0.544,3.973,1.655c1.111,1.111,1.655,2.412,1.655,3.925c0,1.419-0.497,2.649-1.466,3.714
		c-0.969,1.063-2.176,1.654-3.618,1.82c-0.236,0-0.354,0.118-0.354,0.379v2.672c0,0.26,0.118,0.378,0.354,0.378
		c2.389-0.142,4.399-1.088,6.03-2.814c1.632-1.726,2.459-3.783,2.459-6.148c0-2.507-0.875-4.635-2.648-6.384
		c-1.773-1.774-3.902-2.649-6.385-2.649h-0.354c-0.615-2.364-1.916-4.304-3.902-5.841c-1.962-1.537-4.186-2.294-6.621-2.294
		C31.954,103.556,29.187,104.809,27.012,107.315z"/>
	<path fill="#B8E1F8" d="M89.621,25.318c0-2.719,0.852-5.132,2.555-7.26c1.702-2.128,3.854-3.476,6.456-4.091
		c0.732-3.216,2.412-5.865,4.989-7.946c2.578-2.081,5.534-3.098,8.868-3.098c3.264,0,6.148,1.017,8.702,3.027
		c2.555,2.01,4.209,4.612,4.966,7.78h0.757c2.105,0,4.067,0.521,5.865,1.537c1.797,1.017,3.239,2.436,4.28,4.209
		c1.04,1.773,1.584,3.736,1.584,5.841c0,2.081-0.497,3.997-1.489,5.77c-0.993,1.773-2.365,3.192-4.092,4.257
		c-1.727,1.064-3.618,1.631-5.675,1.679c-0.309,0-0.474-0.143-0.474-0.402v-3.146c0-0.283,0.165-0.425,0.474-0.425
		c2.01-0.095,3.735-0.899,5.155-2.412c1.418-1.513,2.128-3.287,2.128-5.344c0-2.058-0.78-3.831-2.317-5.345s-3.358-2.27-5.463-2.27
		h-3.808c-0.283,0-0.426-0.142-0.426-0.402l-0.188-1.372c-0.261-2.554-1.371-4.706-3.288-6.409
		c-1.938-1.727-4.161-2.578-6.739-2.578c-2.577,0-4.848,0.851-6.739,2.578c-1.915,1.726-2.979,3.854-3.216,6.409l-0.166,1.253
		c0,0.283-0.165,0.449-0.473,0.449l-1.254,0.071c-1.962,0.236-3.618,1.088-4.966,2.53c-1.348,1.443-2.01,3.146-2.01,5.108
		c0,2.058,0.709,3.831,2.128,5.344c1.419,1.514,3.146,2.317,5.155,2.413c0.261,0,0.402,0.142,0.402,0.426v3.145
		c0,0.26-0.142,0.402-0.402,0.402c-3.169-0.142-5.841-1.348-8.04-3.619C90.662,31.159,89.621,28.463,89.621,25.318z M102.273,41.139
		c0-0.094,0.023-0.26,0.094-0.473l3.855-13.645c0.142-0.449,0.401-0.804,0.757-1.04c0.354-0.237,0.732-0.355,1.088-0.355
		c0.165,0,0.354,0.023,0.566,0.071c0.568,0.095,0.994,0.402,1.277,0.875c0.284,0.473,0.354,0.993,0.189,1.584l-3.854,13.55
		c-0.284,1.017-0.945,1.514-1.938,1.514c-0.096,0-0.166-0.024-0.261-0.048c-0.142-0.047-0.213-0.071-0.236-0.071
		c-0.521-0.142-0.898-0.402-1.159-0.78C102.392,41.919,102.273,41.541,102.273,41.139z M108.469,47.784l5.771-20.739
		c0.095-0.45,0.331-0.804,0.709-1.041c0.379-0.237,0.757-0.355,1.159-0.355c0.213,0,0.425,0.024,0.639,0.071
		c0.52,0.142,0.898,0.45,1.158,0.922c0.26,0.473,0.308,0.97,0.166,1.513l-5.746,20.763c-0.095,0.402-0.309,0.733-0.687,1.018
		c-0.379,0.283-0.757,0.425-1.206,0.425c-0.213,0-0.426-0.047-0.591-0.118c-0.474-0.119-0.875-0.426-1.23-0.923
		C108.351,48.895,108.304,48.398,108.469,47.784z M118.235,41.186c0-0.094,0.023-0.26,0.095-0.544l3.854-13.645
		c0.142-0.449,0.378-0.804,0.71-1.041c0.354-0.236,0.709-0.354,1.088-0.354c0.188,0,0.401,0.023,0.614,0.071
		c0.497,0.142,0.852,0.378,1.088,0.732c0.236,0.355,0.354,0.733,0.354,1.112c0,0.071-0.023,0.189-0.047,0.331
		s-0.048,0.236-0.048,0.284l-3.854,13.55c-0.094,0.449-0.308,0.828-0.662,1.088s-0.757,0.402-1.205,0.402l-0.568-0.118
		c-0.474-0.142-0.827-0.378-1.088-0.757C118.354,41.943,118.235,41.564,118.235,41.186z"/>
	<path fill="#FFFFFF" d="M112.46,91.84c0.726-0.034,1.339-0.312,1.841-0.837s0.759-1.149,0.759-1.875
		c0,0.726,0.245,1.351,0.747,1.875c0.503,0.524,1.116,0.803,1.842,0.837c-0.726,0.033-1.339,0.312-1.842,0.837
		c-0.502,0.524-0.747,1.149-0.747,1.874c0-0.725-0.245-1.35-0.759-1.874C113.799,92.152,113.186,91.873,112.46,91.84z
		 M115.06,83.806c1.406-0.066,2.6-0.613,3.582-1.64s1.473-2.243,1.473-3.66c0,1.417,0.49,2.634,1.474,3.66
		c0.981,1.026,2.175,1.562,3.592,1.64c-0.926,0.045-1.773,0.302-2.555,0.792c-0.77,0.48-1.384,1.127-1.841,1.931
		c-0.447,0.804-0.67,1.663-0.67,2.6c0-1.417-0.49-2.645-1.473-3.671C117.659,84.42,116.466,83.872,115.06,83.806z M118.764,95.823
		c1.061-0.045,1.964-0.457,2.701-1.228c0.736-0.77,1.104-1.685,1.104-2.756c0,1.071,0.368,1.986,1.104,2.756
		c0.736,0.771,1.629,1.183,2.688,1.228c-1.06,0.045-1.952,0.457-2.688,1.228c-0.736,0.77-1.104,1.685-1.104,2.756
		c0-1.071-0.368-1.986-1.104-2.756C120.717,96.28,119.824,95.879,118.764,95.823z M126.362,90.534
		c1.061-0.044,1.953-0.457,2.689-1.228c0.736-0.77,1.094-1.685,1.094-2.767c0,1.071,0.368,1.985,1.104,2.756
		c0.736,0.77,1.641,1.183,2.7,1.228c-1.06,0.044-1.964,0.457-2.7,1.227c-0.736,0.771-1.104,1.686-1.104,2.756
		c0-1.07-0.368-1.985-1.094-2.756C128.315,90.992,127.423,90.579,126.362,90.534z"/>
	<path fill="#FFFFFF" d="M79.46,125.84c0.726-0.034,1.339-0.312,1.841-0.837s0.759-1.149,0.759-1.875
		c0,0.726,0.245,1.351,0.747,1.875c0.503,0.524,1.116,0.803,1.842,0.837c-0.726,0.033-1.339,0.312-1.842,0.837
		c-0.502,0.524-0.747,1.149-0.747,1.874c0-0.725-0.245-1.35-0.759-1.874C80.799,126.152,80.186,125.873,79.46,125.84z
		 M82.06,117.806c1.406-0.066,2.6-0.613,3.582-1.64s1.473-2.243,1.473-3.66c0,1.417,0.49,2.634,1.474,3.66
		c0.981,1.026,2.175,1.562,3.592,1.64c-0.926,0.045-1.773,0.302-2.555,0.792c-0.77,0.48-1.384,1.127-1.841,1.931
		c-0.447,0.804-0.67,1.663-0.67,2.6c0-1.417-0.49-2.645-1.473-3.671C84.659,118.42,83.466,117.872,82.06,117.806z M85.764,129.823
		c1.061-0.045,1.964-0.457,2.701-1.228c0.736-0.77,1.104-1.685,1.104-2.756c0,1.071,0.368,1.986,1.104,2.756
		c0.736,0.771,1.629,1.183,2.688,1.228c-1.06,0.045-1.952,0.457-2.688,1.228c-0.736,0.77-1.104,1.685-1.104,2.756
		c0-1.071-0.368-1.986-1.104-2.756C87.717,130.28,86.824,129.879,85.764,129.823z M93.362,124.534
		c1.061-0.044,1.953-0.457,2.689-1.228c0.736-0.77,1.094-1.685,1.094-2.767c0,1.071,0.368,1.985,1.104,2.756
		c0.736,0.77,1.641,1.183,2.7,1.228c-1.06,0.044-1.964,0.457-2.7,1.227c-0.736,0.771-1.104,1.686-1.104,2.756
		c0-1.07-0.368-1.985-1.094-2.756C95.315,124.992,94.423,124.579,93.362,124.534z"/>
	<path fill="#FFFFFF" d="M38.562,19.942c0.726-0.034,1.339-0.312,1.841-0.837s0.759-1.149,0.759-1.875
		c0,0.726,0.245,1.351,0.747,1.875c0.503,0.524,1.116,0.803,1.842,0.837c-0.726,0.033-1.339,0.312-1.842,0.837
		c-0.502,0.524-0.747,1.149-0.747,1.874c0-0.725-0.245-1.35-0.759-1.874C39.901,20.254,39.288,19.975,38.562,19.942z M41.162,11.908
		c1.406-0.066,2.6-0.613,3.582-1.64s1.473-2.243,1.473-3.66c0,1.417,0.49,2.634,1.474,3.66c0.981,1.026,2.175,1.562,3.592,1.64
		c-0.926,0.045-1.773,0.302-2.555,0.792c-0.77,0.48-1.384,1.127-1.841,1.931c-0.447,0.804-0.67,1.663-0.67,2.6
		c0-1.417-0.49-2.645-1.473-3.671C43.761,12.522,42.568,11.974,41.162,11.908z M44.866,23.925c1.061-0.045,1.964-0.457,2.701-1.228
		c0.736-0.77,1.104-1.685,1.104-2.756c0,1.071,0.368,1.986,1.104,2.756c0.736,0.771,1.629,1.183,2.688,1.228
		c-1.06,0.045-1.952,0.457-2.688,1.228c-0.736,0.77-1.104,1.685-1.104,2.756c0-1.071-0.368-1.986-1.104-2.756
		C46.819,24.382,45.926,23.981,44.866,23.925z M52.464,18.636c1.061-0.044,1.953-0.457,2.689-1.228
		c0.736-0.77,1.094-1.685,1.094-2.767c0,1.071,0.368,1.985,1.104,2.756c0.736,0.77,1.641,1.183,2.7,1.228
		c-1.06,0.044-1.964,0.457-2.7,1.227c-0.736,0.771-1.104,1.686-1.104,2.756c0-1.07-0.368-1.985-1.094-2.756
		C54.417,19.094,53.525,18.681,52.464,18.636z"/>
	<path fill="#FFFFFF" d="M5.562,53.942c0.726-0.034,1.339-0.312,1.841-0.837s0.759-1.149,0.759-1.875
		c0,0.726,0.245,1.351,0.747,1.875c0.503,0.524,1.116,0.803,1.842,0.837c-0.726,0.033-1.339,0.312-1.842,0.837
		c-0.502,0.524-0.747,1.149-0.747,1.874c0-0.725-0.245-1.35-0.759-1.874C6.901,54.254,6.288,53.975,5.562,53.942z M8.162,45.908
		c1.406-0.066,2.6-0.613,3.582-1.64s1.473-2.243,1.473-3.66c0,1.417,0.49,2.634,1.474,3.66c0.981,1.026,2.175,1.562,3.592,1.64
		c-0.926,0.045-1.773,0.302-2.555,0.792c-0.77,0.48-1.384,1.127-1.841,1.931c-0.447,0.804-0.67,1.663-0.67,2.6
		c0-1.417-0.49-2.645-1.473-3.671C10.761,46.522,9.568,45.974,8.162,45.908z M11.866,57.925c1.061-0.045,1.964-0.457,2.701-1.228
		c0.736-0.77,1.104-1.685,1.104-2.756c0,1.071,0.368,1.986,1.104,2.756c0.736,0.771,1.629,1.183,2.688,1.228
		c-1.06,0.045-1.952,0.457-2.688,1.228c-0.736,0.77-1.104,1.685-1.104,2.756c0-1.071-0.368-1.986-1.104-2.756
		C13.819,58.382,12.926,57.981,11.866,57.925z M19.464,52.636c1.061-0.044,1.953-0.457,2.689-1.228
		c0.736-0.77,1.094-1.685,1.094-2.767c0,1.071,0.368,1.985,1.104,2.756c0.736,0.77,1.641,1.183,2.7,1.228
		c-1.06,0.044-1.964,0.457-2.7,1.227c-0.736,0.771-1.104,1.686-1.104,2.756c0-1.07-0.368-1.985-1.094-2.756
		C21.417,53.094,20.525,52.681,19.464,52.636z"/>
</g>
</svg>
